<svg width="122" height="60" viewBox="0 0 122 60" fill="none" xmlns="http://www.w3.org/2000/svg">
<path d="M119.188 32.4841H2.81897C1.43474 32.4841 0.316406 31.3657 0.316406 29.9815C0.316406 28.5973 1.43474 27.4789 2.81897 27.4789H113.143L97.9555 12.2915C96.978 11.3139 96.978 9.72636 97.9555 8.7488C98.9331 7.77123 100.521 7.77123 101.498 8.7488L120.963 28.2141C121.683 28.9335 121.894 30.005 121.503 30.9434C121.112 31.8741 120.197 32.4841 119.188 32.4841Z" fill="#0D121C"/>
<path d="M99.6998 51.9685C99.0586 51.9685 98.4173 51.726 97.9324 51.2333C96.9548 50.2558 96.9548 48.6682 97.9324 47.6906L117.421 28.2019C118.399 27.2244 119.986 27.2244 120.964 28.2019C121.941 29.1795 121.941 30.7671 120.964 31.7446L101.475 51.2333C100.982 51.726 100.341 51.9685 99.6998 51.9685Z" fill="#0D121C"/>
</svg>
